<?xml version="1.0" encoding="UTF-8" standalone="no"?>
<svg
   xmlns:dc="http://purl.org/dc/elements/1.1/"
   xmlns:cc="http://creativecommons.org/ns#"
   xmlns:rdf="http://www.w3.org/1999/02/22-rdf-syntax-ns#"
   xmlns:svg="http://www.w3.org/2000/svg"
   xmlns="http://www.w3.org/2000/svg"
   xmlns:sodipodi="http://sodipodi.sourceforge.net/DTD/sodipodi-0.dtd"
   xmlns:inkscape="http://www.inkscape.org/namespaces/inkscape"
   width="72.204796mm"
   height="60.645096mm"
   viewBox="0 0 72.204796 60.645096"
   version="1.1"
   id="svg8"
   inkscape:version="1.0.1 (3bc2e813f5, 2020-09-07)"
   sodipodi:docname="logocsidtextsvg.svg">
  <defs
     id="defs2" />
  <sodipodi:namedview
     id="base"
     pagecolor="#ffffff"
     bordercolor="#666666"
     borderopacity="1.0"
     inkscape:pageopacity="0.0"
     inkscape:pageshadow="2"
     inkscape:zoom="2.8"
     inkscape:cx="154.60066"
     inkscape:cy="129.62063"
     inkscape:document-units="mm"
     inkscape:current-layer="layer1"
     inkscape:document-rotation="0"
     showgrid="false"
     inkscape:pagecheckerboard="true"
     fit-margin-top="0"
     fit-margin-left="0"
     fit-margin-right="0"
     fit-margin-bottom="0"
     inkscape:window-width="1920"
     inkscape:window-height="1001"
     inkscape:window-x="-9"
     inkscape:window-y="-9"
     inkscape:window-maximized="1" />
  <metadata
     id="metadata5">
    <rdf:RDF>
      <cc:Work
         rdf:about="">
        <dc:format>image/svg+xml</dc:format>
        <dc:type
           rdf:resource="http://purl.org/dc/dcmitype/StillImage" />
        <dc:title></dc:title>
      </cc:Work>
    </rdf:RDF>
  </metadata>
  <g
     inkscape:label="Calque 1"
     inkscape:groupmode="layer"
     id="layer1"
     transform="translate(-53.981586,-135.49153)">
    <path
       style="fill:#ffffff;stroke-width:0.211667"
       d="m 59.176002,195.85854 c -0.176784,-0.21301 -0.620233,-0.26186 -1.685354,-0.18565 -1.802356,0.12896 -2.801818,-0.27836 -3.309805,-1.34886 -0.400116,-0.84318 -0.18433,-1.87223 0.527723,-2.51663 0.307253,-0.27806 0.35776,-0.46465 0.203699,-0.75251 -0.374588,-0.69993 -0.232235,-1.58115 0.342461,-2.11996 0.469007,-0.43973 0.743351,-0.51029 1.917425,-0.49316 1.471064,0.0215 2.151661,0.3922 1.904131,1.03726 -0.111238,0.28988 -0.324903,0.32539 -1.257122,0.20891 -0.874657,-0.10928 -1.182433,-0.0688 -1.391284,0.18281 -0.35635,0.42938 -0.07222,0.94999 1.328558,2.43431 l 1.078475,1.14279 0.105833,-0.92553 c 0.09353,-0.81791 0.167371,-0.92554 0.635,-0.92554 0.51857,0 0.529167,0.0326 0.529167,1.62771 0,0.985 0.100561,1.72911 0.254677,1.88451 0.177047,0.17852 0.190906,0.37596 0.04547,0.64771 -0.24594,0.45954 -0.888028,0.51274 -1.229053,0.10183 z m -1.421425,-1.36866 c 0.05985,-0.0968 -0.347498,-0.62553 -0.905217,-1.17486 -0.86974,-0.85666 -1.051283,-0.95391 -1.275788,-0.6834 -0.416467,0.50182 -0.196988,1.45928 0.403837,1.76172 0.603319,0.30369 1.615168,0.35866 1.777168,0.0965 z m 5.764018,0.91099 c -0.07307,-0.19042 -0.132853,-1.52905 -0.132853,-2.97473 v -2.62853 h -1.035687 c -1.071166,0 -1.413946,-0.28427 -1.155352,-0.95815 0.104618,-0.27263 0.591778,-0.31401 3.115441,-0.26459 l 2.991432,0.0586 v 0.52916 c 0,0.48875 -0.08443,0.53404 -1.105347,0.59294 l -1.105349,0.0638 -0.05882,2.89956 -0.05882,2.89956 -0.660897,0.0643 c -0.458557,0.0446 -0.701573,-0.0417 -0.79375,-0.28189 z m 4.827365,0.0459 c -0.05857,-0.15264 -0.0794,-1.36708 -0.04627,-2.69875 l 0.06022,-2.42123 0.612032,-0.0699 c 0.347627,-0.0397 0.689138,0.0518 0.79051,0.21167 0.203981,0.32177 0.250949,4.41411 0.05648,4.92089 -0.156848,0.40873 -1.320737,0.454 -1.47297,0.0573 z m 3.60781,-0.42545 c -0.914231,-0.91423 -1.120451,-1.95948 -0.636569,-3.2265 0.444655,-1.16431 1.152784,-1.57386 2.72128,-1.57386 1.20421,0 1.77898,0.34897 1.551434,0.94194 -0.08663,0.22576 -0.406861,0.29985 -1.155276,0.26728 -1.371901,-0.0597 -1.735563,0.26006 -1.735563,1.52603 0,0.54454 0.1143,1.10438 0.254,1.24408 0.1397,0.1397 0.761814,0.254 1.382475,0.254 0.812053,0 1.162931,0.0898 1.251348,0.3202 0.23839,0.62123 -0.337559,0.9498 -1.664906,0.9498 -1.150798,0 -1.328839,-0.0636 -1.968223,-0.70297 z m 4.696418,0.56186 c -0.176367,-0.17637 -0.187912,-6.89897 -0.01264,-7.35574 0.07462,-0.19445 0.375715,-0.33482 0.718191,-0.33482 0.761478,0 0.846667,0.2604 0.846667,2.58802 v 1.91839 L 79.353902,191.31 c 0.869972,-0.82279 1.309842,-1.08904 1.799167,-1.08904 0.91375,0 0.81846,0.37686 -0.398338,1.57536 l -1.046005,1.03028 1.138817,1.27846 c 0.626351,0.70315 1.091434,1.35514 1.033516,1.44885 -0.05792,0.0937 -0.37744,0.17038 -0.710051,0.17038 -0.472184,0 -0.863835,-0.2863 -1.786676,-1.30607 l -1.181926,-1.30607 -0.0029,0.82982 c -0.0048,1.3898 -0.188334,1.78232 -0.833185,1.78232 -0.316271,0 -0.638537,-0.0635 -0.716147,-0.14111 z m 6.716888,-0.57855 c -0.663677,-0.66368 -0.719667,-0.82177 -0.719667,-2.032 0,-1.21024 0.05599,-1.36833 0.719667,-2.03201 0.395816,-0.39581 0.943504,-0.72931 1.217083,-0.74111 1.950369,-0.0841 2.702531,0.22746 3.148491,1.3041 0.238796,0.57651 0.234713,0.76492 -0.02673,1.23348 -0.267517,0.47944 -0.515788,0.5812 -1.865738,0.7647 -0.856435,0.11642 -1.557295,0.30692 -1.557465,0.42333 -6.35e-4,0.4531 1.008511,0.74429 2.121776,0.61222 1.026645,-0.12179 1.11125,-0.0983 1.11125,0.30845 0,0.62292 -0.617901,0.8785 -2.123918,0.8785 -1.201987,0 -1.361931,-0.0568 -2.024749,-0.71966 z m 3.034584,-2.75237 c 0.28263,-0.28263 -0.310654,-0.86776 -0.944465,-0.93148 -0.6857,-0.0689 -1.328119,0.39206 -1.328119,0.95306 0,0.26781 0.198509,0.31024 1.062988,0.22717 0.584642,-0.0562 1.12896,-0.16811 1.209596,-0.24875 z m 3.115296,2.95249 c -0.500715,-0.50072 -0.519547,-0.62396 -0.519547,-3.40008 v -2.88053 l 0.687919,0.0663 c 0.57321,0.0553 0.69908,0.16339 0.75489,0.64841 0.0616,0.53499 0.14107,0.58209 0.98277,0.58209 0.94579,0 1.284,0.31046 1.03763,0.9525 -0.083,0.21623 -0.42149,0.3175 -1.06136,0.3175 h -0.93952 l 0.0626,1.42875 0.0626,1.42875 0.84392,0.0687 c 0.94794,0.0771 1.23474,0.36159 0.93303,0.92533 -0.33186,0.62008 -2.17639,0.53079 -2.844906,-0.13772 z m 6.827942,0.38815 c -0.0829,-0.083 -0.15083,-1.71261 -0.15083,-3.62146 v -3.47064 l 0.68792,0.0663 c 0.68788,0.0663 0.68792,0.0664 0.75094,1.38925 l 0.063,1.32291 h 1.68324 1.683232 v -1.37583 -1.37584 h 0.74595 0.74595 l -0.058,3.54542 -0.058,3.54542 h -0.635 -0.635 l -0.0626,-1.42875 -0.0626,-1.42875 h -1.674002 -1.67399 l -0.0626,1.42875 c -0.0593,1.35279 -0.0911,1.43208 -0.59968,1.49138 -0.2954,0.0344 -0.60496,-0.005 -0.68792,-0.0882 z m 8.711912,-0.17622 c -0.55674,-0.3142 -1.24274,-1.66332 -1.24274,-2.44405 0,-0.87321 0.68591,-2.13213 1.34829,-2.47465 1.19152,-0.61617 3.4697,-0.2068 3.8119,0.68496 0.22828,0.59489 0.14264,1.72859 -0.14885,1.9705 -0.15418,0.12796 -0.9638,0.29618 -1.79916,0.37382 -0.83536,0.0776 -1.51884,0.21106 -1.51884,0.29651 0,0.4362 0.8041,0.73636 1.97265,0.73636 1.28664,0 1.56728,0.16986 1.21134,0.73321 -0.28365,0.44891 -2.90034,0.53771 -3.63459,0.12334 z m 2.72318,-3.16442 c 0.26223,-0.26223 -0.2903,-0.86544 -0.85471,-0.9331 -0.7509,-0.09 -1.41787,0.30568 -1.41787,0.84118 0,0.40408 0.093,0.43388 1.06299,0.34067 0.58464,-0.0562 1.12896,-0.16811 1.20959,-0.24875 z m 3.53792,3.23269 c -0.71203,-0.34592 -1.00676,-1.05111 -1.10988,-2.65556 -0.13565,-2.11052 0.0165,-2.60843 0.79715,-2.60843 0.70937,0 0.81392,0.31751 0.90601,2.75167 l 0.0521,1.37583 0.86497,0.0634 c 0.53655,0.0393 0.95497,-0.045 1.10201,-0.22221 0.13037,-0.15709 0.265,-1.09049 0.29919,-2.07423 l 0.0622,-1.78862 h 0.635 0.635 l 0.0607,2.07227 c 0.06,2.04862 0.0535,2.07941 -0.5658,2.69875 -0.56656,0.56656 -0.75458,0.62511 -1.96569,0.61216 -0.73655,-0.008 -1.53435,-0.10914 -1.77286,-0.22502 z m 5.77033,0.10795 c -0.083,-0.083 -0.15083,-1.12828 -0.15083,-2.32293 0,-1.66879 0.0751,-2.24725 0.3243,-2.49641 0.37793,-0.37793 1.4617,-0.61726 2.34102,-0.51697 0.49671,0.0566 0.61551,0.17233 0.61551,0.59937 0,0.45861 -0.11289,0.54328 -0.84667,0.635 l -0.84666,0.10583 -0.10584,2.01083 c -0.10331,1.96302 -0.1186,2.01233 -0.64292,2.07347 -0.2954,0.0344 -0.60496,-0.005 -0.68791,-0.0882 z m 4.5905,-0.58827 c -0.66367,-0.66368 -0.71967,-0.82177 -0.71967,-2.032 0,-1.21024 0.056,-1.36833 0.71967,-2.03201 0.6623,-0.6623 0.82335,-0.71966 2.02046,-0.71966 1.0929,0 1.38244,0.0816 1.81172,0.51094 0.70027,0.70027 0.86667,1.48643 0.44942,2.12325 -0.28437,0.434 -0.57007,0.53739 -1.8272,0.66127 -1.61315,0.15895 -1.87869,0.30875 -1.33858,0.75514 0.22866,0.18898 0.81225,0.27338 1.691,0.24456 1.19802,-0.0393 1.34185,-4.3e-4 1.34185,0.36297 0,0.59002 -0.64124,0.8452 -2.12392,0.8452 -1.20199,0 -1.36193,-0.0568 -2.02475,-0.71966 z m 3.03459,-2.75237 c 0.28263,-0.28263 -0.31066,-0.86776 -0.94447,-0.93148 -0.6857,-0.0689 -1.32812,0.39206 -1.32812,0.95306 0,0.26781 0.19851,0.31024 1.06299,0.22717 0.58464,-0.0562 1.12896,-0.16811 1.2096,-0.24875 z m -31.129812,-1.11408 c -0.0776,-0.0776 -0.14111,-0.79831 -0.14111,-1.60156 v -1.46045 l 0.58208,0.067 c 0.55219,0.0635 0.58537,0.13041 0.6461,1.30192 0.0634,1.22381 -0.16607,1.83422 -0.68966,1.83422 -0.14096,0 -0.3198,-0.0635 -0.39741,-0.14111 z m -25.248154,-2.06902 c -0.24446,-0.63706 0.01746,-1.06967 0.687176,-1.13501 0.719019,-0.0702 1.034553,0.33777 0.809572,1.04663 -0.152451,0.48033 -1.31989,0.54926 -1.496748,0.0884 z M 74.65329,178.0439 c -7.780343,-0.76698 -8.635894,-0.91605 -10.628287,-1.85182 -2.76975,-1.30087 -4.392706,-3.4976 -4.613167,-6.24409 l -0.106676,-1.32895 0.611541,0.23573 c 0.336348,0.12965 4.564416,1.6487 9.395708,3.37566 4.831292,1.72695 9.855729,3.52572 11.165417,3.99726 2.220269,0.79937 2.38125,0.82914 2.38125,0.4403 0,-0.22937 -0.170174,-0.58721 -0.378166,-0.7952 -0.207992,-0.20799 -3.80368,-1.65091 -7.990417,-3.20649 -4.186737,-1.55558 -8.279001,-3.16822 -9.093917,-3.58363 -2.058453,-1.04932 -3.913798,-2.92277 -4.534961,-4.57921 -0.636533,-1.69743 -0.55492,-3.94407 0.202103,-5.5635 l 0.522858,-1.1185 11.949351,8.68558 c 6.572145,4.77707 12.025207,8.68559 12.117917,8.68559 0.343036,0 0.154748,-1.44215 -0.256559,-1.96504 -0.233817,-0.29725 -1.448255,-1.28001 -2.69875,-2.18391 -1.250495,-0.9039 -3.130876,-2.27473 -4.178626,-3.04628 -1.04775,-0.77157 -3.687163,-2.71249 -5.865362,-4.31318 -3.0013,-2.20556 -4.188697,-3.2141 -4.903252,-4.16467 -1.854473,-2.46699 -2.229391,-5.15303 -1.062242,-7.61026 0.618507,-1.30216 2.517819,-3.61072 2.951643,-3.58765 0.110483,0.006 0.828533,0.88694 1.595664,1.95792 4.379938,6.11475 15.295992,20.8914 15.433245,20.8914 0.340148,0 0.352406,-1.10671 0.01945,-1.75557 -0.191531,-0.37323 -2.860603,-4.20285 -5.931281,-8.51027 -3.070678,-4.30741 -5.851711,-8.40316 -6.180072,-9.10166 -1.619787,-3.44566 -1.039215,-7.02444 1.551773,-9.56552 0.987891,-0.96886 3.367909,-2.60531 3.789098,-2.60531 0.08446,0 1.794609,4.92313 3.800323,10.9403 l 3.646754,10.9403 0.497328,-0.62155 c 0.588776,-0.73585 0.594417,-0.80059 0.175348,-2.0126 -0.23892,-0.69099 -0.502865,-1.02072 -1.004451,-1.25479 -0.851814,-0.3975 -1.204347,-1.09223 -1.208348,-2.38125 -0.0024,-0.78363 0.07191,-1.00541 0.337026,-1.00541 0.237143,0 0.296979,-0.11217 0.197593,-0.37042 -0.0784,-0.20373 -0.575316,-1.75154 -1.104252,-3.43959 -0.844372,-2.69471 -0.963922,-3.31449 -0.979892,-5.07999 -0.01973,-2.18059 0.334294,-3.73791 1.269086,-5.58263 0.653006,-1.28865 2.400023,-3.16902 3.594798,-3.86921 0.859202,-0.50352 0.912272,-0.50922 1.570822,-0.16867 0.89621,0.46345 2.63604,2.10157 3.36115,3.16467 0.31762,0.46567 0.84793,1.51342 1.17847,2.32834 0.54258,1.33768 0.60003,1.7182 0.59123,3.91583 -0.009,2.31641 -0.0607,2.59641 -1.0638,5.78817 -0.87217,2.77523 -1.02413,3.48748 -0.88064,4.1275 0.0954,0.42542 0.23492,1.05925 0.31009,1.40849 0.11126,0.51688 0.66735,-0.9794 2.98931,-8.04333 1.56894,-4.77308 2.883682,-8.71159 2.921632,-8.75224 0.18716,-0.20043 2.4527,1.27171 3.59289,2.33466 2.89271,2.69675 3.53428,6.02369 1.87473,9.72168 -0.31045,0.69177 -2.69471,4.23185 -5.29836,7.86683 -2.603642,3.63499 -4.790602,6.82338 -4.859892,7.08532 -0.0693,0.26194 -0.0624,0.72985 0.0155,1.0398 0.13855,0.55205 0.14918,0.55528 0.52111,0.15875 0.20882,-0.22264 3.38949,-4.50824 7.068162,-9.52356 3.67866,-5.01533 6.88485,-9.3492 7.12485,-9.63084 l 0.43636,-0.51206 1.16374,1.2542 c 1.73389,1.86866 2.32277,3.21435 2.32256,5.30746 -1.4e-4,1.40843 -0.099,1.90452 -0.58783,2.94855 -0.32321,0.69036 -0.93365,1.67745 -1.35654,2.19352 -0.42288,0.51607 -3.53973,3.00863 -6.92633,5.53902 -3.38661,2.53039 -6.419402,4.86623 -6.739552,5.19076 -0.43275,0.43867 -0.58208,0.79985 -0.58208,1.40785 0,0.44979 0.0588,0.8178 0.13074,0.8178 0.0719,0 4.239102,-3.02673 9.260422,-6.72608 5.02132,-3.69934 9.62966,-7.08878 10.24077,-7.53208 l 1.11109,-0.806 0.41286,0.96317 c 1.53978,3.59215 0.62153,6.82688 -2.61714,9.21943 -1.79376,1.32513 -2.35396,1.56696 -11.96557,5.1653 -4.640252,1.73719 -5.726522,2.30267 -5.726522,2.98108 0,0.55694 -1.31913,0.98904 14.710842,-4.81868 3.37608,-1.22317 6.41325,-2.32901 6.74927,-2.45744 l 0.61093,-0.23349 -0.1048,1.46466 c -0.0638,0.89227 -0.28845,1.84405 -0.57476,2.43547 -0.92834,1.91772 -3.29837,3.69363 -5.93981,4.45083 -0.90991,0.26085 -14.226482,1.60883 -15.893362,1.60883 -0.30606,0 -0.39439,-0.27927 -0.51886,-1.64041 -0.32386,-3.54155 -1.26117,-5.93662 -3.75402,-9.59245 -1.74439,-2.55821 -2.05876,-3.1839 -2.05876,-4.09758 0,-1.03844 0.69675,-1.47983 2.12011,-1.34306 0.77873,0.0748 1.05489,0.029 1.05489,-0.17511 0,-0.6793 -0.56407,-1.38693 -1.46154,-1.83353 l -0.97263,-0.48399 0.25264,-0.73568 c 0.36932,-1.07546 0.3352,-3.08808 -0.0667,-3.93503 -0.46265,-0.97497 -0.63331,-1.03808 -1.0573,-0.39099 -0.33796,0.51579 -0.33854,0.62128 -0.009,1.66577 0.37676,1.19521 0.46697,2.33841 0.17005,2.1549 -0.0998,-0.0617 -0.23741,-0.58466 -0.30581,-1.16218 -0.15194,-1.28292 -0.73324,-2.46675 -1.6526,-3.36561 -0.78892,-0.77131 -1.163368,-0.84971 -1.343761,-0.28134 -0.18306,0.57677 0.158936,1.31093 1.137221,2.44124 0.47561,0.54952 0.86368,1.1124 0.86239,1.25084 -0.001,0.13844 -0.24838,-0.0605 -0.5491,-0.44207 -0.644525,-0.81785 -1.812423,-1.45993 -2.840713,-1.56174 -0.628512,-0.0622 -0.745191,-0.003 -0.803158,0.40482 -0.102515,0.72199 0.936796,1.64356 2.055243,1.82241 1.670998,0.2672 3.089978,2.23128 1.838888,2.54528 -0.78723,0.19759 -1.833239,1.18198 -2.264283,2.13092 -0.336537,0.74089 -0.389606,1.45059 -0.396342,5.30043 -0.0087,4.98476 -0.222734,6.36107 -1.304836,8.39129 -0.361751,0.67872 -1.117291,1.6639 -1.678972,2.18929 -1.241962,1.16171 -0.561649,1.14767 -10.09183,0.20819 z"
       id="path889" />
  </g>
</svg>
