<?xml version="1.0" encoding="UTF-8" standalone="no"?>
<svg
   xmlns:dc="http://purl.org/dc/elements/1.1/"
   xmlns:cc="http://creativecommons.org/ns#"
   xmlns:rdf="http://www.w3.org/1999/02/22-rdf-syntax-ns#"
   xmlns:svg="http://www.w3.org/2000/svg"
   xmlns="http://www.w3.org/2000/svg"
   xmlns:sodipodi="http://sodipodi.sourceforge.net/DTD/sodipodi-0.dtd"
   xmlns:inkscape="http://www.inkscape.org/namespaces/inkscape"
   width="61.5mm"
   height="43.237907mm"
   viewBox="0 0 61.5 43.237908"
   version="1.1"
   id="svg8"
   inkscape:version="1.0.1 (3bc2e813f5, 2020-09-07)"
   sodipodi:docname="logocsid.svg">
  <defs
     id="defs2" />
  <sodipodi:namedview
     id="base"
     pagecolor="#ffffff"
     bordercolor="#666666"
     borderopacity="1.0"
     inkscape:pageopacity="0.0"
     inkscape:pageshadow="2"
     inkscape:zoom="2.8"
     inkscape:cx="134.48007"
     inkscape:cy="129.62063"
     inkscape:document-units="mm"
     inkscape:current-layer="layer1"
     inkscape:document-rotation="0"
     showgrid="false"
     inkscape:pagecheckerboard="true"
     fit-margin-top="0"
     fit-margin-left="0"
     fit-margin-right="0"
     fit-margin-bottom="0"
     inkscape:window-width="1920"
     inkscape:window-height="1001"
     inkscape:window-x="-9"
     inkscape:window-y="-9"
     inkscape:window-maximized="1" />
  <metadata
     id="metadata5">
    <rdf:RDF>
      <cc:Work
         rdf:about="">
        <dc:format>image/svg+xml</dc:format>
        <dc:type
           rdf:resource="http://purl.org/dc/dcmitype/StillImage" />
        <dc:title></dc:title>
      </cc:Work>
    </rdf:RDF>
  </metadata>
  <g
     inkscape:label="Calque 1"
     inkscape:groupmode="layer"
     id="layer1"
     transform="translate(-59.30516,-135.49153)">
    <path
       style="fill:#ffffff;stroke-width:0.211667"
       d="m 74.65329,178.0439 c -7.780343,-0.76698 -8.635894,-0.91605 -10.628287,-1.85182 -2.76975,-1.30087 -4.392706,-3.4976 -4.613167,-6.24409 l -0.106676,-1.32895 0.611541,0.23573 c 0.336348,0.12965 4.564416,1.6487 9.395708,3.37566 4.831292,1.72695 9.855729,3.52572 11.165417,3.99726 2.220269,0.79937 2.38125,0.82914 2.38125,0.4403 0,-0.22937 -0.170174,-0.58721 -0.378166,-0.7952 -0.207992,-0.20799 -3.80368,-1.65091 -7.990417,-3.20649 -4.186737,-1.55558 -8.279001,-3.16822 -9.093917,-3.58363 -2.058453,-1.04932 -3.913798,-2.92277 -4.534961,-4.57921 -0.636533,-1.69743 -0.55492,-3.94407 0.202103,-5.5635 l 0.522858,-1.1185 11.949351,8.68558 c 6.572145,4.77707 12.025207,8.68559 12.117917,8.68559 0.343036,0 0.154748,-1.44215 -0.256559,-1.96504 -0.233817,-0.29725 -1.448255,-1.28001 -2.69875,-2.18391 -1.250495,-0.9039 -3.130876,-2.27473 -4.178626,-3.04628 -1.04775,-0.77157 -3.687163,-2.71249 -5.865362,-4.31318 -3.0013,-2.20556 -4.188697,-3.2141 -4.903252,-4.16467 -1.854473,-2.46699 -2.229391,-5.15303 -1.062242,-7.61026 0.618507,-1.30216 2.517819,-3.61072 2.951643,-3.58765 0.110483,0.006 0.828533,0.88694 1.595664,1.95792 4.379938,6.11475 15.295992,20.8914 15.433245,20.8914 0.340148,0 0.352406,-1.10671 0.01945,-1.75557 -0.191531,-0.37323 -2.860603,-4.20285 -5.931281,-8.51027 -3.070678,-4.30741 -5.851711,-8.40316 -6.180072,-9.10166 -1.619787,-3.44566 -1.039215,-7.02444 1.551773,-9.56552 0.987891,-0.96886 3.367909,-2.60531 3.789098,-2.60531 0.08446,0 1.794609,4.92313 3.800323,10.9403 l 3.646754,10.9403 0.497328,-0.62155 c 0.588776,-0.73585 0.594417,-0.80059 0.175348,-2.0126 -0.23892,-0.69099 -0.502865,-1.02072 -1.004451,-1.25479 -0.851814,-0.3975 -1.204347,-1.09223 -1.208348,-2.38125 -0.0024,-0.78363 0.07191,-1.00541 0.337026,-1.00541 0.237143,0 0.296979,-0.11217 0.197593,-0.37042 -0.0784,-0.20373 -0.575316,-1.75154 -1.104252,-3.43959 -0.844372,-2.69471 -0.963922,-3.31449 -0.979892,-5.07999 -0.01973,-2.18059 0.334294,-3.73791 1.269086,-5.58263 0.653006,-1.28865 2.400023,-3.16902 3.594798,-3.86921 0.859202,-0.50352 0.912272,-0.50922 1.570822,-0.16867 0.89621,0.46345 2.63604,2.10157 3.36115,3.16467 0.31762,0.46567 0.84793,1.51342 1.17847,2.32834 0.54258,1.33768 0.60003,1.7182 0.59123,3.91583 -0.009,2.31641 -0.0607,2.59641 -1.0638,5.78817 -0.87217,2.77523 -1.02413,3.48748 -0.88064,4.1275 0.0954,0.42542 0.23492,1.05925 0.31009,1.40849 0.11126,0.51688 0.66735,-0.9794 2.98931,-8.04333 1.56894,-4.77308 2.883682,-8.71159 2.921632,-8.75224 0.18716,-0.20043 2.4527,1.27171 3.59289,2.33466 2.89271,2.69675 3.53428,6.02369 1.87473,9.72168 -0.31045,0.69177 -2.69471,4.23185 -5.29836,7.86683 -2.603642,3.63499 -4.790602,6.82338 -4.859892,7.08532 -0.0693,0.26194 -0.0624,0.72985 0.0155,1.0398 0.13855,0.55205 0.14918,0.55528 0.52111,0.15875 0.20882,-0.22264 3.38949,-4.50824 7.068162,-9.52356 3.67866,-5.01533 6.88485,-9.3492 7.12485,-9.63084 l 0.43636,-0.51206 1.16374,1.2542 c 1.73389,1.86866 2.32277,3.21435 2.32256,5.30746 -1.4e-4,1.40843 -0.099,1.90452 -0.58783,2.94855 -0.32321,0.69036 -0.93365,1.67745 -1.35654,2.19352 -0.42288,0.51607 -3.53973,3.00863 -6.92633,5.53902 -3.38661,2.53039 -6.419402,4.86623 -6.739552,5.19076 -0.43275,0.43867 -0.58208,0.79985 -0.58208,1.40785 0,0.44979 0.0588,0.8178 0.13074,0.8178 0.0719,0 4.239102,-3.02673 9.260422,-6.72608 5.02132,-3.69934 9.62966,-7.08878 10.24077,-7.53208 l 1.11109,-0.806 0.41286,0.96317 c 1.53978,3.59215 0.62153,6.82688 -2.61714,9.21943 -1.79376,1.32513 -2.35396,1.56696 -11.96557,5.1653 -4.640252,1.73719 -5.726522,2.30267 -5.726522,2.98108 0,0.55694 -1.31913,0.98904 14.710842,-4.81868 3.37608,-1.22317 6.41325,-2.32901 6.74927,-2.45744 l 0.61093,-0.23349 -0.1048,1.46466 c -0.0638,0.89227 -0.28845,1.84405 -0.57476,2.43547 -0.92834,1.91772 -3.29837,3.69363 -5.93981,4.45083 -0.90991,0.26085 -14.226482,1.60883 -15.893362,1.60883 -0.30606,0 -0.39439,-0.27927 -0.51886,-1.64041 -0.32386,-3.54155 -1.26117,-5.93662 -3.75402,-9.59245 -1.74439,-2.55821 -2.05876,-3.1839 -2.05876,-4.09758 0,-1.03844 0.69675,-1.47983 2.12011,-1.34306 0.77873,0.0748 1.05489,0.029 1.05489,-0.17511 0,-0.6793 -0.56407,-1.38693 -1.46154,-1.83353 l -0.97263,-0.48399 0.25264,-0.73568 c 0.36932,-1.07546 0.3352,-3.08808 -0.0667,-3.93503 -0.46265,-0.97497 -0.63331,-1.03808 -1.0573,-0.39099 -0.33796,0.51579 -0.33854,0.62128 -0.009,1.66577 0.37676,1.19521 0.46697,2.33841 0.17005,2.1549 -0.0998,-0.0617 -0.23741,-0.58466 -0.30581,-1.16218 -0.15194,-1.28292 -0.73324,-2.46675 -1.6526,-3.36561 -0.78892,-0.77131 -1.163368,-0.84971 -1.343761,-0.28134 -0.18306,0.57677 0.158936,1.31093 1.137221,2.44124 0.47561,0.54952 0.86368,1.1124 0.86239,1.25084 -0.001,0.13844 -0.24838,-0.0605 -0.5491,-0.44207 -0.644525,-0.81785 -1.812423,-1.45993 -2.840713,-1.56174 -0.628512,-0.0622 -0.745191,-0.003 -0.803158,0.40482 -0.102515,0.72199 0.936796,1.64356 2.055243,1.82241 1.670998,0.2672 3.089978,2.23128 1.838888,2.54528 -0.78723,0.19759 -1.833239,1.18198 -2.264283,2.13092 -0.336537,0.74089 -0.389606,1.45059 -0.396342,5.30043 -0.0087,4.98476 -0.222734,6.36107 -1.304836,8.39129 -0.361751,0.67872 -1.117291,1.6639 -1.678972,2.18929 -1.241962,1.16171 -0.561649,1.14767 -10.09183,0.20819 z"
       id="path889"
       sodipodi:nodetypes="csscsccsssssscsssscsssccscssssscssscsscsscssscccsscsscscscscsscssssssscsssssscccssssscsccsssccscssccccscscsscc" />
  </g>
</svg>
